<svg xmlns="http://www.w3.org/2000/svg" viewBox="0 0 310 188"><path fill="transparent" stroke="#fff" stroke-dasharray="1000" d="M21.1 187.12H8.92L111.16 1.14h12.17l102.08 185.98H213.4L117.25 12.04 21.1 187.12zm97.55-155.88l6.4 10.33-79.92 145.55H33.12l85.53-155.88zm12.49 21.34l5.93 11.12-67.59 123.42H57.31l73.83-134.54zM143 74.82l5.93 11.34-55.41 100.96H81.5L143 74.82zm-30.59 90.06l4.37-8.09h73.68l4.68 8.09h-82.73zm8.74-16.17l4.37-8.09h56.04l4.84 8.09h-65.25zm8.74-16.17l4.53-8.09h38.4l4.53 8.09h-47.46zm17.48-131.4l102.24 185.98h-12.18L135.36 1.14h12.01zM298 187.12h-12.18L183.74 1.14h12.02L298 187.12z"><animate attributeName="fill" from="transparent" to="#ddd" dur="1s" begin="2s" fill="freeze"/><animate attributeName="stroke-dashoffset" from="1000" to="0" dur="4s" fill="freeze"/></path><path fill="transparent" stroke="#39f" stroke-dasharray="1000" d="M172.57 1.14l102.24 185.98h-12.02L160.55 1.14z"><animate attributeName="fill" from="transparent" to="#39f" dur="1s" begin="2s" fill="freeze"/><animate attributeName="stroke-dashoffset" from="1000" to="0" dur="4s" fill="freeze"/></path></svg>